<svg xmlns="http://www.w3.org/2000/svg">
  <symbol id="cross" viewBox="0 0 20 20">
    <path d="M17.1 5.2l-2.6-2.6-4.6 4.7-4.7-4.7-2.5 2.6 4.7 4.7-4.7 4.7 2.5 2.5 4.7-4.7 4.6 4.7 2.6-2.5-4.7-4.7"/>
  </symbol>
  <symbol id="play" viewBox="0 0 15 15">
    <path d="M7.5,0.5c3.9,0,7,3.1,7,7c0,3.9-3.1,7-7,7c-3.9,0-7-3.1-7-7l0,0C0.5,3.6,3.6,0.5,7.5,0.5 C7.5,0.5,7.5,0.5,7.5,0.5L7.5,0.5L7.5,0.5z M6.1,4.7v5.6l4.2-2.8L6.1,4.7z"/>
  </symbol>
  <symbol id="tag" viewBox="0 0 512.001 512">
  <path d="M456.883 0H262.574a15.003 15.003 0 00-10.605 4.395L16.113 240.242c-21.484 21.492-21.484 56.457 0 77.942l177.7 177.695c10.374 10.375 24.214 16.09 38.964 16.094h.004c14.754 0 28.594-5.72 38.973-16.098l235.848-235.852a15.003 15.003 0 004.394-10.605L512 55.109C511.996 24.723 487.27 0 456.883 0zm25.113 243.207L250.54 474.664c-4.71 4.715-11.02 7.309-17.758 7.309-6.742 0-13.047-2.594-17.758-7.305L37.324 296.973c-9.789-9.79-9.789-25.727 0-35.52L268.785 30h188.098C470.73 30 482 41.266 482 55.113zm0 0"/><path d="M379.785 85.078c-12.59 0-24.426 4.906-33.328 13.809-8.902 8.898-13.805 20.734-13.805 33.324 0 12.59 4.903 24.426 13.805 33.328 8.902 8.902 20.738 13.805 33.328 13.805 12.586 0 24.422-4.903 33.324-13.805 8.903-8.902 13.805-20.738 13.805-33.328 0-12.59-4.902-24.426-13.8-33.324-8.903-8.903-20.739-13.809-33.329-13.809zm12.113 59.246a17.01 17.01 0 01-12.113 5.02 17.003 17.003 0 01-12.113-5.02 17.01 17.01 0 01-5.02-12.113 17.01 17.01 0 015.02-12.113 17.01 17.01 0 0112.113-5.02c4.574 0 8.875 1.781 12.113 5.02a17.01 17.01 0 015.02 12.113c0 4.574-1.785 8.879-5.02 12.113zm0 0"/>
  </symbol>
  <symbol id="github" viewBox="0 0 24 24">
  <path d="M12 .297c-6.63 0-12 5.373-12 12 0 5.303 3.438 9.8 8.205 11.385.6.113.82-.258.82-.577 0-.285-.01-1.04-.015-2.04-3.338.724-4.042-1.61-4.042-1.61C4.422 18.07 3.633 17.7 3.633 17.7c-1.087-.744.084-.729.084-.729 1.205.084 1.838 1.236 1.838 1.236 1.07 1.835 2.809 1.305 3.495.998.108-.776.417-1.305.76-1.605-2.665-.3-5.466-1.332-5.466-5.93 0-1.31.465-2.38 1.235-3.22-.135-.303-.54-1.523.105-3.176 0 0 1.005-.322 3.3 1.23.96-.267 1.98-.399 3-.405 1.02.006 2.04.138 3 .405 2.28-1.552 3.285-1.23 3.285-1.23.645 1.653.24 2.873.12 3.176.765.84 1.23 1.91 1.23 3.22 0 4.61-2.805 5.625-5.475 5.92.42.36.81 1.096.81 2.22 0 1.606-.015 2.896-.015 3.286 0 .315.21.69.825.57C20.565 22.092 24 17.592 24 12.297c0-6.627-5.373-12-12-12"/>
  </symbol>
  <symbol id="rss" viewBox="0 0 24 24">
  <path d="M19.199 24C19.199 13.467 10.533 4.8 0 4.8V0c13.165 0 24 10.835 24 24h-4.801zM3.291 17.415c1.814 0 3.293 1.479 3.293 3.295 0 1.813-1.485 3.29-3.301 3.29C1.47 24 0 22.526 0 20.71s1.475-3.294 3.291-3.295zM15.909 24h-4.665c0-6.169-5.075-11.245-11.244-11.245V8.09c8.727 0 15.909 7.184 15.909 15.91z"/>
  </symbol>
  <symbol id="ant-clock" viewBox="0 0 1024 1024">
  <path d="M512 64q91 0 174 35 81 34 143 96t96 143q35 83 35 174t-35 174q-34 81-96 143t-143 96q-83 35-174 35t-174-35q-81-34-143-96T99 686q-35-83-35-174t35-174q34-81 96-143t143-96q83-35 174-35zm0-64Q373 0 255 68.5T68.5 255 0 512t68.5 257T255 955.5t257 68.5 257-68.5T955.5 769t68.5-257-68.5-257T769 68.5 512 0zm222 512H576V225q0-13-9.5-22.5T544 193t-22.5 9.5T512 225v319q0 13 9.5 22.5T544 576h190q14 0 23-9.5t9-22.5-9-22.5-23-9.5z"/>
  </symbol>
  <symbol id="ant-calendar" viewBox="0 0 1024 894">
<path d="M960 126H768V32q0-13-9.5-22.5T736 0t-22.5 9.5T704 32v94H512V32q0-13-9.5-22.5T480 0t-22.5 9.5T448 32v94H256V32q0-13-9.5-22.5T224 0t-22.5 9.5T192 32v94H64q-26 0-45 19T0 190v640q0 27 19 45.5T64 894h896q26 0 45-18.5t19-45.5V190q0-26-19-45t-45-19zm-768 75v23q0 13 9.5 22.5T224 256t22.5-9.5T256 224v-23h192v23q0 13 9.5 22.5T480 256t22.5-9.5T512 224v-23h192v23q0 13 9.5 22.5T736 256t22.5-9.5T768 224v-23h181v119H82q-3 0-7 1V201h117zM75 819V383q4 1 7 1h867v435H75zm597-369H352q-13 0-22.5 9.5T320 482t9.5 22.5T352 514h320q13 0 22.5-9.5T704 482t-9.5-22.5T672 450zm0 192H352q-13 0-22.5 9.5T320 674t9.5 22.5T352 706h320q13 0 22.5-9.5T704 674t-9.5-22.5T672 642z"/>
</symbol>
<symbol id="bars" viewBox="0 0 1200 1100">
<path d="M50 0h1100q21 0 35.5 14.5T1200 50v100q0 21-14.5 35.5T1150 200H50q-21 0-35.5-14.5T0 150V50q0-21 14.5-35.5T50 0zm0 300h1100q21 0 35.5 14.5T1200 350v100q0 21-14.5 35.5T1150 500H50q-21 0-35.5-14.5T0 450V350q0-21 14.5-35.5T50 300zm0 300h1100q21 0 35.5 14.5T1200 650v100q0 21-14.5 35.5T1150 800H50q-21 0-35.5-14.5T0 750V650q0-21 14.5-35.5T50 600zm0 300h1100q21 0 35.5 14.5T1200 950v100q0 21-14.5 35.5T1150 1100H50q-21 0-35.5-14.5T0 1050V950q0-21 14.5-35.5T50 900z"/>
</symbol>
<symbol id="folder-open" viewBox="0 0 1026.3333740234375 830.666748046875"  >
<path d="M978 322h1V208q0-29-20.5-49.5T910 138H485q-2 0-5-2.5t-4-4.5l-17-71q-6-25-28-42.5T383 0H69Q41 0 20.5 20.5T0 69v692q0 27 18 46 20 23 51 23 619 1 804 0 23 0 40.5-15t22.5-38l42-195 45-205q5-21-9-38t-36-17zM64 594V69q0-5 5-5h314q4 0 8 4 5 3 6 7l17 71v1q6 23 26 39 21 16 45 16h425q5 0 5 5v115H160q-17 0-29.5 10T115 358zm850-18l-41 190H92l82-380h782z"/>
</symbol>
<symbol viewBox="0 0 749 1102"  id="chevron-left">
<path d="M749 198L397 551l352 353-197 198L0 550 552 0z"/>
</symbol>
<symbol viewBox="0 0 749 1102"  id="chevron-right">
<path d="M749 551l-551 551L0 904l353-353L0 198 198 0z"/>
</symbol>
<symbol viewBox="0 0 1154 1154"  id="adjust">
<path d="M577 0q117 0 224 45.5t184.5 123 123 184.5 45.5 224-45.5 224-123 184.5-184.5 123-224 45.5-224-45.5-184.5-123T45.5 801 0 577t45.5-224 123-184.5T353 45.5 577 0zm0 1004V150q-116 0-214.5 57T207 362.5 150 577t57 214.5T362.5 947t214.5 57z"/>
</symbol>
  <symbol viewBox="0 0 1201.8333740234375 1199"  id="search">
  <path d="M491 0q100 0 191 39t156.5 104.5T943 300t39 191l-1 2 1 5q0 141-78 262l275 274q23 26 22.5 44.5T1179 1121l-59 58q-26 20-46.5 20t-39.5-20L759 905q-119 77-261 77l-5-1-2 1q-100 0-191-39T143.5 838.5 39 682 0 491t39-191 104.5-156.5T300 39 491 0zm0 169q-88 0-162 43T212 329t-43 162 43 162 117 117 162 43 162-43 117-117 43-162-43-162-117-117-162-43z"/>
  </symbol>
</svg>