<svg xmlns="http://www.w3.org/2000/svg">
  <symbol id="cross" viewBox="0 0 20 20">
    <path d="M17.1 5.2l-2.6-2.6-4.6 4.7-4.7-4.7-2.5 2.6 4.7 4.7-4.7 4.7 2.5 2.5 4.7-4.7 4.6 4.7 2.6-2.5-4.7-4.7"/>
  </symbol>
  <symbol id="play" viewBox="0 0 15 15">
    <path d="M7.5,0.5c3.9,0,7,3.1,7,7c0,3.9-3.1,7-7,7c-3.9,0-7-3.1-7-7l0,0C0.5,3.6,3.6,0.5,7.5,0.5 C7.5,0.5,7.5,0.5,7.5,0.5L7.5,0.5L7.5,0.5z M6.1,4.7v5.6l4.2-2.8L6.1,4.7z"/>
  </symbol>
  <symbol id="tag" viewBox="0 0 512.001 512">
  <path d="M456.883 0H262.574a15.003 15.003 0 00-10.605 4.395L16.113 240.242c-21.484 21.492-21.484 56.457 0 77.942l177.7 177.695c10.374 10.375 24.214 16.09 38.964 16.094h.004c14.754 0 28.594-5.72 38.973-16.098l235.848-235.852a15.003 15.003 0 004.394-10.605L512 55.109C511.996 24.723 487.27 0 456.883 0zm25.113 243.207L250.54 474.664c-4.71 4.715-11.02 7.309-17.758 7.309-6.742 0-13.047-2.594-17.758-7.305L37.324 296.973c-9.789-9.79-9.789-25.727 0-35.52L268.785 30h188.098C470.73 30 482 41.266 482 55.113zm0 0"/><path d="M379.785 85.078c-12.59 0-24.426 4.906-33.328 13.809-8.902 8.898-13.805 20.734-13.805 33.324 0 12.59 4.903 24.426 13.805 33.328 8.902 8.902 20.738 13.805 33.328 13.805 12.586 0 24.422-4.903 33.324-13.805 8.903-8.902 13.805-20.738 13.805-33.328 0-12.59-4.902-24.426-13.8-33.324-8.903-8.903-20.739-13.809-33.329-13.809zm12.113 59.246a17.01 17.01 0 01-12.113 5.02 17.003 17.003 0 01-12.113-5.02 17.01 17.01 0 01-5.02-12.113 17.01 17.01 0 015.02-12.113 17.01 17.01 0 0112.113-5.02c4.574 0 8.875 1.781 12.113 5.02a17.01 17.01 0 015.02 12.113c0 4.574-1.785 8.879-5.02 12.113zm0 0"/>
  </symbol>
  <symbol id="github" viewBox="0 0 24 24">
  <path d="M12 .297c-6.63 0-12 5.373-12 12 0 5.303 3.438 9.8 8.205 11.385.6.113.82-.258.82-.577 0-.285-.01-1.04-.015-2.04-3.338.724-4.042-1.61-4.042-1.61C4.422 18.07 3.633 17.7 3.633 17.7c-1.087-.744.084-.729.084-.729 1.205.084 1.838 1.236 1.838 1.236 1.07 1.835 2.809 1.305 3.495.998.108-.776.417-1.305.76-1.605-2.665-.3-5.466-1.332-5.466-5.93 0-1.31.465-2.38 1.235-3.22-.135-.303-.54-1.523.105-3.176 0 0 1.005-.322 3.3 1.23.96-.267 1.98-.399 3-.405 1.02.006 2.04.138 3 .405 2.28-1.552 3.285-1.23 3.285-1.23.645 1.653.24 2.873.12 3.176.765.84 1.23 1.91 1.23 3.22 0 4.61-2.805 5.625-5.475 5.92.42.36.81 1.096.81 2.22 0 1.606-.015 2.896-.015 3.286 0 .315.21.69.825.57C20.565 22.092 24 17.592 24 12.297c0-6.627-5.373-12-12-12"/>
  </symbol>
  <symbol id="rss" viewBox="0 0 24 24">
  <path d="M19.199 24C19.199 13.467 10.533 4.8 0 4.8V0c13.165 0 24 10.835 24 24h-4.801zM3.291 17.415c1.814 0 3.293 1.479 3.293 3.295 0 1.813-1.485 3.29-3.301 3.29C1.47 24 0 22.526 0 20.71s1.475-3.294 3.291-3.295zM15.909 24h-4.665c0-6.169-5.075-11.245-11.244-11.245V8.09c8.727 0 15.909 7.184 15.909 15.91z"/>
  </symbol>
  <symbol id="ant-clock" viewBox="0 0 1024 1024">
  <path d="M512 64q91 0 174 35 81 34 143 96t96 143q35 83 35 174t-35 174q-34 81-96 143t-143 96q-83 35-174 35t-174-35q-81-34-143-96T99 686q-35-83-35-174t35-174q34-81 96-143t143-96q83-35 174-35zm0-64Q373 0 255 68.5T68.5 255 0 512t68.5 257T255 955.5t257 68.5 257-68.5T955.5 769t68.5-257-68.5-257T769 68.5 512 0zm222 512H576V225q0-13-9.5-22.5T544 193t-22.5 9.5T512 225v319q0 13 9.5 22.5T544 576h190q14 0 23-9.5t9-22.5-9-22.5-23-9.5z"/>
  </symbol>
  <symbol id="ant-calendar" viewBox="0 0 1024 894">
<path d="M960 126H768V32q0-13-9.5-22.5T736 0t-22.5 9.5T704 32v94H512V32q0-13-9.5-22.5T480 0t-22.5 9.5T448 32v94H256V32q0-13-9.5-22.5T224 0t-22.5 9.5T192 32v94H64q-26 0-45 19T0 190v640q0 27 19 45.5T64 894h896q26 0 45-18.5t19-45.5V190q0-26-19-45t-45-19zm-768 75v23q0 13 9.5 22.5T224 256t22.5-9.5T256 224v-23h192v23q0 13 9.5 22.5T480 256t22.5-9.5T512 224v-23h192v23q0 13 9.5 22.5T736 256t22.5-9.5T768 224v-23h181v119H82q-3 0-7 1V201h117zM75 819V383q4 1 7 1h867v435H75zm597-369H352q-13 0-22.5 9.5T320 482t9.5 22.5T352 514h320q13 0 22.5-9.5T704 482t-9.5-22.5T672 450zm0 192H352q-13 0-22.5 9.5T320 674t9.5 22.5T352 706h320q13 0 22.5-9.5T704 674t-9.5-22.5T672 642z"/>
</symbol>
<symbol id="bars" viewBox="0 0 1200 1100">
<path d="M50 0h1100q21 0 35.5 14.5T1200 50v100q0 21-14.5 35.5T1150 200H50q-21 0-35.5-14.5T0 150V50q0-21 14.5-35.5T50 0zm0 300h1100q21 0 35.5 14.5T1200 350v100q0 21-14.5 35.5T1150 500H50q-21 0-35.5-14.5T0 450V350q0-21 14.5-35.5T50 300zm0 300h1100q21 0 35.5 14.5T1200 650v100q0 21-14.5 35.5T1150 800H50q-21 0-35.5-14.5T0 750V650q0-21 14.5-35.5T50 600zm0 300h1100q21 0 35.5 14.5T1200 950v100q0 21-14.5 35.5T1150 1100H50q-21 0-35.5-14.5T0 1050V950q0-21 14.5-35.5T50 900z"/>
</symbol>
<symbol id="folder-open" viewBox="0 0 1026.3333740234375 830.666748046875"  >
<path d="M978 322h1V208q0-29-20.5-49.5T910 138H485q-2 0-5-2.5t-4-4.5l-17-71q-6-25-28-42.5T383 0H69Q41 0 20.5 20.5T0 69v692q0 27 18 46 20 23 51 23 619 1 804 0 23 0 40.5-15t22.5-38l42-195 45-205q5-21-9-38t-36-17zM64 594V69q0-5 5-5h314q4 0 8 4 5 3 6 7l17 71v1q6 23 26 39 21 16 45 16h425q5 0 5 5v115H160q-17 0-29.5 10T115 358zm850-18l-41 190H92l82-380h782z"/>
</symbol>
<symbol viewBox="0 0 749 1102"  id="chevron-left">
<path d="M749 198L397 551l352 353-197 198L0 550 552 0z"/>
</symbol>
<symbol viewBox="0 0 749 1102"  id="chevron-right">
<path d="M749 551l-551 551L0 904l353-353L0 198 198 0z"/>
</symbol>
<symbol viewBox="0 0 1154 1154"  id="adjust">
<path d="M577 0q117 0 224 45.5t184.5 123 123 184.5 45.5 224-45.5 224-123 184.5-184.5 123-224 45.5-224-45.5-184.5-123T45.5 801 0 577t45.5-224 123-184.5T353 45.5 577 0zm0 1004V150q-116 0-214.5 57T207 362.5 150 577t57 214.5T362.5 947t214.5 57z"/>
</symbol>
  <symbol viewBox="0 0 1201.8333740234375 1199"  id="search">
  <path d="M491 0q100 0 191 39t156.5 104.5T943 300t39 191l-1 2 1 5q0 141-78 262l275 274q23 26 22.5 44.5T1179 1121l-59 58q-26 20-46.5 20t-39.5-20L759 905q-119 77-261 77l-5-1-2 1q-100 0-191-39T143.5 838.5 39 682 0 491t39-191 104.5-156.5T300 39 491 0zm0 169q-88 0-162 43T212 329t-43 162 43 162 117 117 162 43 162-43 117-117 43-162-43-162-117-117-162-43z"/>
  </symbol>
  <symbol fill-rule="evenodd" stroke-miterlimit="1.414" clip-rule="evenodd" stroke-linejoin="round" viewBox="0 0 16 13.006182670593262"  id="simple-twitter">
<path fill-rule="nonzero" d="M15.999 1.542a6.62 6.62 0 0 1-1.885.517A3.299 3.299 0 0 0 15.557.243a6.59 6.59 0 0 1-2.085.795A3.273 3.273 0 0 0 11.076.002a3.281 3.281 0 0 0-3.197 4.03A9.329 9.329 0 0 1 1.113.604a3.243 3.243 0 0 0-.444 1.65c0 1.14.58 2.143 1.46 2.732a3.278 3.278 0 0 1-1.487-.41v.04c0 1.59 1.13 2.918 2.633 3.22a3.336 3.336 0 0 1-1.482.056 3.287 3.287 0 0 0 3.067 2.28 6.592 6.592 0 0 1-4.077 1.404c-.265 0-.526-.015-.783-.045a9.303 9.303 0 0 0 5.032 1.474c6.038 0 9.34-5 9.34-9.338 0-.143-.004-.284-.01-.425A6.67 6.67 0 0 0 16 1.542z"/>
</symbol>
<symbol fill-rule="evenodd" stroke-miterlimit="1.414" clip-rule="evenodd" stroke-linejoin="round" viewBox="0 0 13.541999816894531 16" aria-labelledby="hrsi-simple-stackoverflow-title" id="simple-stackoverflow"><title id="hrsi-simple-stackoverflow-title">logo of stackoverflow</title>
<path d="M11.428 14.577v-4.27h1.423V16H0v-5.693h1.42v4.27h10.006zm-8.583-1.423h7.16V11.73h-7.16v1.424zm.173-3.235l6.987 1.465.3-1.38L3.32 8.54l-.302 1.38zm.906-3.365l6.47 3.02.602-1.295-6.47-3.02-.602 1.295zm1.81-3.19l5.478 4.57.906-1.078-5.477-4.57-.905 1.077zM9.272 0L8.108.863l4.27 5.735 1.164-.862L9.27 0z"/>
</symbol>
<symbol fill-rule="evenodd" stroke-miterlimit="1.414" clip-rule="evenodd" stroke-linejoin="round" viewBox="0 0 16 16" aria-labelledby="eqsi-simple-linkedin-title" id="simple-linkedin">
<path fill-rule="nonzero" d="M13.632 13.635h-2.37V9.922c0-.886-.018-2.025-1.234-2.025-1.235 0-1.424.964-1.424 1.96v3.778h-2.37V6H8.51v1.04h.03c.318-.6 1.092-1.233 2.247-1.233 2.4 0 2.845 1.58 2.845 3.637v4.188zM3.558 4.955a1.376 1.376 0 1 1-.001-2.751 1.376 1.376 0 0 1 .001 2.751zm1.188 8.68H2.37V6h2.376v7.635zM14.816 0H1.18C.528 0 0 .516 0 1.153v13.694C0 15.484.528 16 1.18 16h13.635c.652 0 1.185-.516 1.185-1.153V1.153C16 .516 15.467 0 14.815 0z"/>
</symbol>
<symbol viewBox="0 0 24 24" id="keybase">
<path d="M10.446 21.371a.953.953 0 1 1-.955-.954c.524 0 .951.431.951.955m5.922-.001a.953.953 0 1 1-.958-.954c.526 0 .954.431.954.955m4.544-9.159l-.156-.204c-.046-.06-.096-.116-.143-.175c-.045-.061-.094-.113-.141-.169c-.104-.12-.209-.239-.319-.359l-.076-.08l-.091-.099l-.135-.131c-.015-.018-.032-.034-.05-.053a10.87 10.87 0 0 0-3.955-2.504l-.23-.078l.035-.083a4.108 4.108 0 0 0-.12-3.255a4.11 4.11 0 0 0-2.438-2.16c-.656-.216-1.23-.319-1.711-.305c-.033-.105-.1-.577.496-1.848L10.663 0l-.287.399c-.33.455-.648.895-.945 1.328a1.857 1.857 0 0 0-1.245-.58L6.79 1.061h-.012c-.033-.003-.07-.003-.104-.003c-.99 0-1.81.771-1.87 1.755l-.088 1.402v.003a1.876 1.876 0 0 0 1.755 1.979l1.002.061c-.065.84.073 1.62.405 2.306a11.279 11.279 0 0 0-3.66 2.484C.913 14.391.913 18.051.913 20.994v1.775l1.305-1.387c.266.93.652 1.807 1.145 2.615H5.06a9.197 9.197 0 0 1-1.68-3.848l1.913-2.03l-.985 3.091l1.74-1.268c3.075-2.234 6.744-2.75 10.91-1.529c1.805.532 3.56.039 4.473-1.257l.104-.165c.091.498.141.998.141 1.496c0 1.563-.255 3.687-1.38 5.512h1.611c.776-1.563 1.181-3.432 1.181-5.512c-.001-2.199-.786-4.421-2.184-6.274zM8.894 6.191c.123-1.002.578-1.949 1.23-2.97a1.36 1.36 0 0 0 1.283.749c.217-.008.605.025 1.233.232c.714.236 1.286.744 1.608 1.425s.349 1.442.079 2.149c-.173.445-.454.82-.806 1.109l-.408-.502l-.002-.003a1.468 1.468 0 0 0-2.059-.205c-.334.27-.514.66-.534 1.058c-1.2-.541-1.8-1.643-1.628-3.041l.004-.001zm4.304 5.11l-.519.425a.228.228 0 0 1-.323-.032l-.111-.135a.238.238 0 0 1 .034-.334l.51-.42l-1.055-1.299a.307.307 0 0 1 .044-.436a.303.303 0 0 1 .434.041l2.963 3.645a.309.309 0 0 1-.168.499a.315.315 0 0 1-.31-.104l-.295-.365l-1.045.854a.244.244 0 0 1-.154.055a.237.237 0 0 1-.186-.09l-.477-.579a.24.24 0 0 1 .035-.336l1.051-.857l-.426-.533l-.002.001zM7.753 4.866l-1.196-.075a.463.463 0 0 1-.435-.488l.09-1.401a.462.462 0 0 1 .461-.436h.024l1.401.091a.459.459 0 0 1 .433.488l-.007.101a9.269 9.269 0 0 0-.773 1.72h.002zm12.524 11.481c-.565.805-1.687 1.081-2.924.718c-3.886-1.141-7.396-.903-10.468.701l1.636-5.123l-5.291 5.609c.099-3.762 2.453-6.966 5.758-8.311c.471.373 1.034.66 1.673.841c.16.044.322.074.48.102a1.41 1.41 0 0 0 .21 1.407l.075.09c-.172.45-.105.975.221 1.374l.475.582a1.39 1.39 0 0 0 1.079.513c.321 0 .635-.111.886-.314l.285-.232c.174.074.367.113.566.113a1.45 1.45 0 0 0 .928-.326c.623-.51.72-1.435.209-2.06l-1.67-2.056c.145-.117.281-.244.408-.381c.135.037.271.078.4.12c.266.097.533.198.795.315a9.55 9.55 0 0 1 2.771 1.897c.029.03.059.055.085.083l.17.175a9.168 9.168 0 0 1 .35.387l.126.15c.045.053.086.104.13.16l.114.15c.04.051.079.102.117.154c.838 1.149.987 2.329.404 3.157v.005zM7.719 4.115l-.835-.051l.053-.835l.834.051l-.052.835z" fill="#626262"/>
</symbol>
</svg>